PathFileType	4	(X/Y/Z)	D:\TRACE\spot_10-12-23\spot_arm_body_motion_3_8-v60.trc
DataRate	CameraRate	NumFrames	NumMarkers	Units	OrigDataRate	OrigDataStartFrame	OrigNumFrames
100.00	100.00	      42	9	mm	100.00	4376	      7000
Frame#	Time	front left toe			Front right toe			aft left toe			aft right toe			Arm			FL body			FR body			AL Body			AR Body			
		X1	Y1	Z1	X2	Y2	Z2	X3	Y3	Z3	X4	Y4	Z4	X5	Y5	Z5	X6	Y6	Z6	X7	Y7	Z7	X8	Y8	Z8	X9	Y9	Z9	

4376	43.750	-187.37291	20.01822	-383.40228	225.88773	25.18780	-473.49448	-108.82535	12.33590	228.16829	239.83069	12.46324	138.24991	11.81777	848.39264	-695.05371	-58.11663	611.68512	-438.18079	94.02389	618.10376	-446.51349	-11.28534	539.58942	441.73056	139.24948	539.65369	435.71201	
4377	43.760	-185.90063	20.03653	-386.50241	224.86665	25.66327	-473.80441	-110.76288	11.30782	228.77371	238.29506	14.62869	138.40872	11.74624	848.59229	-695.00714	-60.72180	613.74091	-438.36728	91.23202	619.18445	-447.06091	-13.40526	540.08801	441.53543	136.73491	539.43939	435.47842	
4378	43.770	-186.12396	19.61800	-385.49646	225.02071	24.61814	-473.55612	-110.87266	11.74679	228.00728	237.84778	14.76709	138.63080	11.13036	849.02966	-694.71814	-62.71645	614.97955	-438.81229	89.47430	619.69708	-447.40042	-16.21631	540.97699	440.80756	133.95613	540.00623	435.22754	
4379	43.780	-186.71861	18.45958	-386.10669	224.80647	23.74442	-474.00549	-110.98020	12.30812	227.57022	238.48019	14.22213	138.84354	11.00546	849.16949	-694.59155	-64.59091	615.79529	-439.23013	87.51361	620.51172	-448.21158	-18.64548	541.95898	440.43341	131.35818	540.43304	434.08850	
4380	43.790	-186.46303	17.34428	-386.64713	224.59860	23.02534	-474.26773	-111.35181	12.13666	227.45621	237.70247	14.56469	137.73528	11.31085	848.87915	-694.95544	-66.34443	616.75647	-440.20007	85.83524	620.86737	-448.74854	-20.47316	543.22644	439.82611	129.36951	541.45178	433.74973	
4381	43.800	-186.41211	16.99605	-386.81039	225.24963	23.17122	-474.38135	-111.45194	12.25805	227.13522	237.27431	14.82764	137.68036	11.05638	848.60010	-695.58655	-67.88497	617.62689	-440.98898	84.23634	621.54681	-449.39795	-22.96429	544.98303	438.74088	127.16071	542.75476	433.40176	
4382	43.810	-186.80098	16.69389	-387.18964	226.63474	23.26231	-474.22821	-111.52148	12.58910	226.94403	237.31027	15.18836	137.68367	10.69412	848.57574	-696.07837	-69.39680	618.19025	-441.92538	82.79829	622.29016	-450.16064	-24.71074	546.30328	438.28357	125.38348	544.30835	432.62088	
4383	43.820	-187.11519	15.90326	-387.54401	225.30975	21.69277	-475.09961	-111.80502	13.02879	226.51051	237.34329	15.52288	137.31396	10.06113	848.50037	-696.34705	-70.68909	618.74188	-443.02362	81.62585	622.85486	-450.85187	-27.32634	547.49152	437.19504	123.48600	545.54486	431.59366	
4384	43.830	-187.15971	15.01162	-387.85306	225.69431	21.51609	-475.44659	-111.99817	13.09651	226.16576	237.33604	15.48004	137.04320	9.46297	848.17578	-696.77264	-72.11171	619.16626	-444.10855	80.23105	623.42279	-452.49188	-28.47495	548.67291	436.12888	121.72996	546.70880	430.29123	
4385	43.840	-187.21413	14.23516	-388.23633	224.97441	20.92473	-475.69171	-112.10914	13.20206	225.92517	237.21063	15.79209	136.57365	7.86243	848.09503	-697.33801	-73.37917	619.28894	-445.26889	78.75773	623.78955	-453.41766	-29.87306	549.75269	435.19855	120.72709	548.60400	430.02200	
4386	43.850	-187.09448	13.28510	-388.41214	224.84711	20.02682	-476.41898	-111.82116	13.41830	225.72266	237.01221	16.07790	136.39156	6.69225	848.05322	-697.61810	-74.46836	619.35370	-446.38699	77.50011	624.33356	-454.40546	-30.60340	551.21790	434.31305	119.07930	549.96143	428.65784	
4387	43.860	-187.53853	12.59161	-388.87549	224.63173	19.31568	-476.77740	-111.87309	13.71221	225.23244	237.03816	16.22347	135.92950	5.44973	848.10754	-698.16656	-75.86538	619.55402	-447.61047	76.25815	624.76593	-455.84860	-31.79882	552.71539	432.70804	118.25002	551.72784	427.34064	
4388	43.870	-187.77541	12.07708	-389.10858	224.56189	18.59871	-477.13321	-111.82597	14.01003	224.93073	237.23097	16.53613	135.53046	4.73010	848.03162	-698.61829	-77.28410	619.73981	-448.71945	74.94294	624.95917	-457.05786	-32.48731	554.25848	431.95755	117.63515	553.41705	426.09738	
4389	43.880	-187.93805	11.39546	-389.40637	224.89261	18.04346	-478.05936	-111.72628	14.29406	224.69832	237.42445	16.74040	135.33344	4.22708	847.90283	-698.99365	-78.67354	619.83594	-450.05505	73.59892	625.18030	-458.38620	-33.29263	555.73602	430.42621	116.78832	554.92041	424.90958	
4390	43.890	-187.94182	10.23211	-389.72525	225.22224	17.40740	-477.97119	-112.77805	14.78977	224.24664	237.35191	16.67765	134.73375	3.95107	847.77399	-699.66339	-79.67644	619.51367	-451.23184	72.10353	625.03143	-459.80069	-33.90992	557.25476	429.20819	116.30383	556.64850	423.51416	
4391	43.900	-188.10710	9.54005	-389.77957	223.98035	16.40926	-478.42480	-112.91943	15.31690	223.90421	237.41982	16.96653	134.31493	4.13233	847.65192	-700.11432	-80.79308	619.18823	-452.66168	70.89445	625.05151	-461.41779	-34.20126	558.43164	428.04495	115.96784	558.21533	422.30911	
4392	43.910	-187.77766	8.54949	-390.09192	223.85556	15.79996	-478.70486	-111.59613	15.27140	223.77061	237.33313	16.96754	133.99199	4.34919	847.76251	-700.45288	-81.75721	619.25702	-454.15262	70.38861	625.10583	-462.91458	-34.54029	560.16132	426.83954	115.51471	559.98865	420.84988	
4393	43.920	-188.18977	8.10645	-390.51923	223.96724	14.94183	-479.23691	-112.99907	16.07382	223.38585	237.35834	17.05918	133.63712	4.89123	847.61133	-700.81592	-82.68216	619.33167	-455.45255	69.54567	625.13690	-464.12570	-34.93495	561.77014	425.51163	114.91007	561.63000	419.47440	
4394	43.930	-188.26147	7.66341	-390.71637	224.00943	14.35489	-479.50565	-112.99111	16.35729	223.01056	237.35840	17.28710	133.39586	5.20378	847.38025	-701.13062	-83.28778	619.34503	-456.71356	68.89479	625.29388	-465.43527	-35.67357	563.34760	424.37247	114.77222	563.12164	418.40201	
4395	43.940	-188.07097	6.76652	-391.08105	223.91589	13.53003	-480.05856	-113.00176	16.48864	222.64859	237.50227	17.46791	132.98726	5.51163	847.01178	-701.46735	-83.58028	618.95740	-458.33548	68.36163	625.15979	-467.25150	-36.24352	564.74731	422.69055	113.86707	564.64734	416.79935	
4396	43.950	-187.86349	6.14535	-391.49261	224.83856	12.71928	-480.11438	-111.61257	16.26016	222.44034	237.21408	17.33362	132.39886	5.69433	846.62616	-701.67981	-83.80127	618.82141	-459.69763	68.19525	625.06219	-468.35092	-36.98869	565.93219	421.66318	112.87137	565.86206	415.59912	
4397	43.960	-187.68416	5.50986	-391.85941	224.14841	12.43874	-480.56744	-112.65906	16.80176	222.02441	237.37073	17.56367	132.08807	5.90666	846.25623	-701.86212	-83.77634	618.72278	-461.20819	67.99004	624.74200	-469.66577	-37.58386	567.26074	420.15375	112.59235	567.40283	414.35617	
4398	43.970	-187.30656	4.82781	-392.16901	224.32576	10.92042	-481.04758	-112.40408	17.05118	221.68304	237.61992	17.80685	132.05508	5.88676	846.00287	-702.03467	-83.76170	618.90533	-462.59387	68.47067	625.03638	-471.27359	-38.39502	568.62842	418.70892	111.78397	568.53925	413.08978	
4399	43.980	-187.08167	4.45231	-392.45581	224.84596	10.35947	-481.24069	-112.22171	17.33101	221.36009	237.83801	18.06861	131.87082	5.68154	845.70844	-701.97491	-83.59682	619.05457	-464.09427	68.29126	625.11884	-472.60016	-38.41124	569.76984	417.63800	112.14890	569.92517	412.27786	
4400	43.990	-186.62659	3.73358	-392.88535	225.03773	9.50923	-481.51511	-110.86659	17.08208	221.11308	238.13548	18.28066	131.66512	5.44131	845.11646	-701.81500	-83.36671	619.30737	-465.33023	68.50935	625.60327	-473.66525	-39.18373	570.62805	416.42239	110.95562	570.69879	410.72272	
4401	44.000	-186.53661	3.17227	-393.50003	225.43607	8.66682	-481.74371	-110.77922	17.20323	220.61502	238.46054	18.70881	131.08417	4.98910	843.69739	-701.54254	-83.13597	619.70532	-466.72824	69.23913	625.90906	-474.95352	-39.65047	571.14001	414.78391	110.35907	571.11591	409.66260	
4402	44.010	-186.07878	2.02662	-393.52441	225.60071	8.83103	-481.76544	-110.67918	17.37341	220.33951	238.48056	19.13755	130.71523	4.36349	840.97034	-701.64758	-82.57422	619.93213	-467.54990	69.16935	625.72174	-475.35895	-39.73352	571.76727	414.28119	110.49163	571.72363	408.92310	
4403	44.020	-186.08113	1.94192	-394.26614	226.08978	7.30528	-482.11713	-110.36787	17.69286	220.05208	238.80603	19.09667	130.91428	3.57790	836.97638	-702.67548	-82.08826	620.35553	-468.36667	70.23474	626.26953	-476.26843	-39.59155	571.97479	413.23840	110.48032	571.74731	408.13025	
4404	44.030	-185.74512	1.45392	-394.54474	226.02003	6.59630	-482.70355	-110.14763	17.95946	219.84021	238.82927	19.03534	130.40953	2.35245	831.46356	-704.41638	-81.73882	620.48315	-468.83347	70.24341	626.38861	-476.80664	-39.45238	572.32166	412.76324	110.90290	571.91528	407.84784	
4405	44.040	-185.45755	0.78942	-394.64236	226.50565	5.83691	-482.70520	-109.93458	18.26237	219.77518	238.84567	19.10810	130.30959	1.02410	824.81000	-707.15906	-81.13689	620.26172	-469.50922	71.16330	625.98016	-477.79950	-39.26082	572.64465	412.48932	110.90727	572.16376	407.13879	
4406	44.050	-186.22160	0.76064	-394.91797	228.71223	5.16362	-481.97437	-109.71965	18.71649	219.55762	239.07951	19.30886	130.23518	-0.66381	817.74799	-710.54828	-80.70281	619.48737	-470.01852	71.16743	624.87744	-477.70538	-38.64186	573.04041	412.11005	111.22894	572.65613	406.88974	
4407	44.060	-185.67839	-0.23079	-395.22580	226.53412	4.84793	-483.17139	-110.30884	19.39208	219.23349	239.44873	19.46391	129.90614	-1.90337	811.10962	-713.84796	-80.03425	617.75684	-470.50919	71.82634	623.59058	-478.30981	-38.16964	574.48535	411.80600	112.11950	573.73053	406.48413	
4408	44.070	-185.32774	-1.09720	-395.30923	227.09305	3.14070	-483.34814	-109.93659	19.75705	218.94745	239.95529	19.58159	129.68475	-2.87475	805.50220	-716.81989	-79.94695	615.78149	-471.06979	71.96400	621.57983	-479.09232	-37.16251	575.74542	411.07776	112.74100	575.06085	405.91473	
4409	44.080	-184.53119	-2.38518	-395.21509	227.86746	2.17186	-483.54593	-109.39503	20.25632	218.61256	240.47934	19.88066	129.61642	-3.17847	801.00970	-719.20288	-79.63444	613.58350	-471.63754	72.29389	619.12012	-479.89655	-35.98154	577.28802	410.77539	113.95412	576.42767	405.42126	
4410	44.090	-184.41029	-3.02043	-395.13074	228.19524	1.36532	-483.35355	-109.00791	20.67719	218.35878	240.57089	19.70955	128.99193	-3.47554	797.96881	-721.32874	-79.58881	611.11658	-472.15375	72.92922	616.62897	-480.77863	-34.67420	578.78754	410.47107	115.24377	577.88831	404.72345	
4411	44.100	-184.56702	-3.50126	-395.16943	228.18272	0.91054	-484.11588	-107.61420	20.81215	218.32166	241.07127	19.87184	128.74068	-3.07665	796.23175	-722.45111	-79.56705	608.60889	-472.74744	72.91955	613.85693	-481.48636	-33.39297	580.42059	409.80777	116.33922	579.52228	403.84189	
4412	44.110	-184.35443	-3.89580	-395.25897	228.55481	-0.01116	-484.27127	-107.19366	21.26922	218.11026	241.33905	19.85802	128.23009	-2.78365	795.55029	-723.29309	-79.17970	605.93640	-473.38242	72.91511	611.29266	-482.25821	-32.21394	581.67950	409.10315	118.44981	580.88330	403.75031	
4413	44.120	-184.05315	-4.62328	-395.20624	228.60988	-0.58712	-484.62454	-106.86483	21.70631	217.79681	242.13649	20.12200	128.22002	-2.13532	795.82141	-723.72992	-78.91737	603.55170	-473.94235	72.91087	608.93298	-483.09756	-30.86505	582.53253	408.87128	119.05788	581.85370	402.41074	
4414	44.130	-183.55887	-5.43140	-395.41217	228.83499	-0.63580	-484.64355	-106.63427	22.04085	217.77359	242.22287	19.72957	127.58244	-1.42169	797.05603	-723.77014	-78.24715	601.33026	-474.50903	73.27332	606.61963	-483.79849	-29.93186	583.54346	408.07724	120.25345	582.45898	401.86020	
4415	44.140	-183.22476	-5.82236	-395.65604	229.24614	-2.03632	-484.48212	-106.41755	22.16138	217.59848	242.50580	19.71177	127.36022	-0.77232	798.77338	-723.29907	-77.68616	599.59363	-475.16956	74.29875	604.91919	-484.60321	-28.83688	583.78979	407.38797	121.18536	582.68042	401.20493	
4416	44.150	-182.92381	-6.07436	-395.79428	230.21246	-2.31602	-484.61996	-106.08344	22.34184	217.42065	242.82742	19.68307	127.26183	-0.14402	800.78052	-722.35028	-76.60821	598.35089	-475.62607	76.26859	602.95770	-484.31961	-27.97943	583.65625	406.96808	122.28406	582.63184	400.69855	
4417	44.160	-182.52000	-6.41497	-395.92136	230.06274	-3.43890	-484.55820	-106.35598	22.52690	217.18828	243.35117	19.92944	127.15855	0.80123	802.73975	-721.53223	-75.60538	597.47260	-476.18881	76.63228	602.11725	-485.40656	-27.15376	583.23450	406.74786	123.05353	582.04602	400.44608	
